<svg width="51" height="45" viewBox="0 0 51 45" fill="none" xmlns="http://www.w3.org/2000/svg">
<path d="M1.32352 25.4809L25.775 1.02942L50.2265 25.4809" stroke="#F2916D" stroke-linecap="round" stroke-linejoin="round"/>
<path d="M6.75717 20.0472V41.7819C6.75717 42.5024 7.04341 43.1935 7.55291 43.703C8.06242 44.2125 8.75345 44.4987 9.474 44.4987H17.6245C18.345 44.4987 19.0361 44.2125 19.5456 43.703C20.0551 43.1935 20.3413 42.5024 20.3413 41.7819V30.9146C20.3413 30.194 20.6276 29.503 21.1371 28.9935C21.6466 28.484 22.3376 28.1977 23.0582 28.1977H28.4918C29.2124 28.1977 29.9034 28.484 30.4129 28.9935C30.9224 29.503 31.2086 30.194 31.2086 30.9146V41.7819C31.2086 42.5024 31.4949 43.1935 32.0044 43.703C32.5139 44.2125 33.2049 44.4987 33.9255 44.4987H42.076C42.7965 44.4987 43.4876 44.2125 43.9971 43.703C44.5066 43.1935 44.7928 42.5024 44.7928 41.7819V20.0472" stroke="#F2916D" stroke-linecap="round" stroke-linejoin="round"/>
</svg>
